<svg id="Layer_1" data-name="Layer 1" xmlns="http://www.w3.org/2000/svg" viewBox="0 0 552.97 402.03"><defs><style>.cls-1{fill:#b4f7ff;}.cls-1,.cls-9{opacity:0.5;}.cls-2{fill:#f1f1f1;}.cls-3{fill:#b2b2b2;}.cls-4{fill:#cbcbcb;}.cls-5{fill:#aaffba;}.cls-6{fill:#ff94ee;}.cls-7{fill:#00025f;}.cls-8{fill:#3e009b;}.cls-9{fill:#aa00a7;}</style></defs><title>code</title><path class="cls-1" d="M614.81,351.46c-7,49.7,37.47,178.83-264.13,144.39C138.2,471.59,9.71,330.13,86.55,351.46c227,63,245.89-289.12,264.13-144.39C386.29,489.59,643.81,146.86,614.81,351.46Z" transform="translate(-64.11 -142.47)"/><path class="cls-2" d="M167.8,426.51" transform="translate(-64.11 -142.47)"/><path class="cls-3" d="M387.37,451.53l-201.31,12c-1.73.1-3.21-.85-3.28-2.12l-17-32.36c-.08-1.27,1.27-2.39,3-2.49l216.3-12.93c1.74-.1,3.21.85,3.29,2.12l2,33.34C390.46,450.31,389.11,451.42,387.37,451.53Z" transform="translate(-64.11 -142.47)"/><path class="cls-4" d="M388.36,448.29,187.05,460.24c-1.74.1-3.21-.84-3.28-2.1l-17-32.16c-.07-1.26,1.28-2.37,3-2.47l216.3-12.93c1.74-.1,3.21.84,3.29,2.1l2,33.13C391.44,447.08,390.09,448.18,388.36,448.29Z" transform="translate(-64.11 -142.47)"/><path class="cls-4" d="M165.45,421.09,153.82,320.28a2.58,2.58,0,0,1,2.47-2.87L330.08,312a2.56,2.56,0,0,1,2.63,2.28l11,96.55a2.57,2.57,0,0,1-2.41,2.86l-173.13,9.71A2.57,2.57,0,0,1,165.45,421.09Z" transform="translate(-64.11 -142.47)"/><polygon class="cls-5" points="106.05 275.04 94.47 179.6 264.04 174.54 274.99 266.04 106.05 275.04"/><path class="cls-6" d="M437.5,280.5C316.51,257.5,307,153,307,153c-24,18-30,53-36,91,0,0,2,61,56.5,87.5L341,414s22,37,81,6C422,420,445.5,336.5,437.5,280.5Z" transform="translate(-64.11 -142.47)"/><path class="cls-7" d="M439,317s51-161-77-174c-1.94-.2-25.28-3.65-56,10-9,4-15,5-28,53C278,206,321,311,439,317Z" transform="translate(-64.11 -142.47)"/><path class="cls-8" d="M333.72,370.71S255.5,374.5,238.5,430.5s-26,107-20,114h305s0-96-32-118c0,0-21.86-33.83-59.93-48.42C431.57,378.08,354.94,389.93,333.72,370.71Z" transform="translate(-64.11 -142.47)"/><path class="cls-7" d="M266.5,544.5c-11-19,19-79,19-79s12.79,79,19.4,79Z" transform="translate(-64.11 -142.47)"/><circle class="cls-9" cx="99.52" cy="76.73" r="52.83"/></svg>