<svg id="Layer_1" data-name="Layer 1" xmlns="http://www.w3.org/2000/svg" viewBox="0 0 536.4 404.5"><defs><style>.cls-1{fill:#ffad4c;}.cls-1,.cls-8{opacity:0.5;}.cls-2{fill:#ff94ee;}.cls-3{fill:#eeff15;}.cls-4{fill:#00025f;}.cls-5{fill:#3e009b;}.cls-6{fill:none;}.cls-7{fill:#cbcbcb;}.cls-8{fill:#00df12;}</style></defs><title>sax</title><path class="cls-1" d="M585,216c83.14-17.2,0,135-207,234C229,521.28,243,468,90,297c-63.79-71.3,212.82,22.77,243-108C360,72,324,270,585,216Z" transform="translate(-80.48 -117)"/><path class="cls-2" d="M382.55,376.2l47.95-38.7s-3-17,1-18a9.36,9.36,0,0,1,7,1s0,4-3,6,3,7,3,7l3,38-37,34Z" transform="translate(-80.48 -117)"/><path class="cls-2" d="M455,314.5s16,4,14,9-4,9-8,10-1-9-1-9l-5,1Z" transform="translate(-80.48 -117)"/><path class="cls-2" d="M455.5,338.5s16-10,18-7-1,18-4,18-5-8-5-8l-8,4-1-7" transform="translate(-80.48 -117)"/><path class="cls-2" d="M456.5,351.5s21,1,21,4-5,19-9,16-4-9-4-9l-7-2Z" transform="translate(-80.48 -117)"/><path class="cls-3" d="M437.77,296.36l-26.56-17.47a3.68,3.68,0,0,1,2-6.76c11.44,0,28.42,1.22,37.77,7.3a3.66,3.66,0,0,1,1.63,2.77c1.44,17,13.35,155.42,20.86,157.3,7.32,1.83,18.4-4.29,20.24-22.19a3.68,3.68,0,0,1,5.31-2.91c8.45,4.26,24.43,13.48,22.95,21.6,0,0-20,54-44,70,0,0-47.22,35.38-38.58-206.42A3.7,3.7,0,0,0,437.77,296.36Z" transform="translate(-80.48 -117)"/><path d="M396,265l27.09,5.09L419,288l-14-9c-2-3-7.53-5.94-8.49-11.18Z" transform="translate(-80.48 -117)"/><path class="cls-2" d="M249.5,357.5s-19-162,43-203c0,0,45-30,99-14,0,0,56,47,9,124,0,0-42,37-63,40l-3,56S286.5,387.5,249.5,357.5Z" transform="translate(-80.48 -117)"/><path class="cls-4" d="M391.5,140.5s-33,110-144,137c0,0,0-69,32-112C279.5,165.5,313.5,123.5,391.5,140.5Z" transform="translate(-80.48 -117)"/><path class="cls-5" d="M188.5,521.5h256S422,360.91,338.18,355.62c-.89-.06-1.78-.1-2.68-.12,0,0-43,22-87-3C248.5,352.5,180.5,373.5,188.5,521.5Z" transform="translate(-80.48 -117)"/><path class="cls-4" d="M347.85,521.24S367.5,447.5,362.5,439.5s54.71,66,45.35,82Z" transform="translate(-80.48 -117)"/><path class="cls-6" d="M247.5,277.5c108-40,144-137,144-137S273.5,60.5,247.5,277.5Z" transform="translate(-80.48 -117)"/><circle class="cls-7" cx="368.02" cy="216.5" r="6"/><circle class="cls-7" cx="368.52" cy="235" r="6.5"/><circle class="cls-7" cx="369.52" cy="256" r="6.5"/><circle class="cls-7" cx="373.02" cy="294.5" r="9"/><circle class="cls-7" cx="376.52" cy="318" r="9.5"/><circle class="cls-7" cx="381.02" cy="343.5" r="11"/><circle class="cls-8" cx="90.52" cy="45" r="45"/></svg>