<svg id="Layer_1" data-name="Layer 1" xmlns="http://www.w3.org/2000/svg" viewBox="0 0 613.43 463.54"><defs><style>.cls-1{fill:#86ffd5;opacity:0.5;}.cls-2{fill:#ff94ee;}.cls-3{fill:#cbcbcb;}.cls-4{fill:#ff2a54;}.cls-5{fill:#3e009b;}.cls-6{fill:#00025f;}.cls-7{fill:#ff3573;opacity:0.75;}</style></defs><title>solder</title><path class="cls-1" d="M542.87,350.31C804.37,616.87,382.51,381.59,275.31,488c-103.8,103-355.61-83.07-225-215C177,145,192,163,250.5,354,298.72,511.49,481.74,288,542.87,350.31Z" transform="translate(-13.57 -100.46)"/><path class="cls-2" d="M463.58,456.94c.2,0,16-3.25,29.42-12.94.1-.07,4.88-5,5-5,4-1,13,1,13-1,0-4.24-14-14-22-13-.81.1-27.22,2-27.19,1.94" transform="translate(-13.57 -100.46)"/><path d="M367.82,429.73s21.35-55.88,64.18-46.17l6.15-7.15c-47.71-18.66-81,49.31-81,49.31Z" transform="translate(-13.57 -100.46)"/><polygon class="cls-3" points="539.56 427.21 489.28 363.26 498.02 355.8 549.83 419.82 551.19 430.92 539.56 427.21"/><polygon class="cls-4" points="471.51 317.95 430 268.99 411.55 290.45 414.05 291.76 447.5 329.26 467.82 313.59 447.5 329.26 486.44 372.91 491.01 368.84 504.48 356.82 471.51 317.95"/><path class="cls-2" d="M463.45,454.81a4,4,0,0,1-.57,2.54,1.18,1.18,0,0,0-.11.19c-1.27,3-7.59,18.07-9.91,24.57a1,1,0,0,1-1.88,0c-4.19-11.79-19-52.12-17.89-52.36,3.62-.81,16.39-25,20-31.95a4.81,4.81,0,0,1,3-2.46c7.95-2.14,18.94-1.73,27.22-.92a4.88,4.88,0,0,1,2.16,9C479,407.6,474,409,470.76,409.32a4.93,4.93,0,0,0-4.43,4.7,24.9,24.9,0,0,1-3.87,12,3.77,3.77,0,0,0-.57,2.27Z" transform="translate(-13.57 -100.46)"/><path class="cls-5" d="M328,344c162,52,122,220,122,220H131c-7.34-56,33.77-161.29,40.56-178.19a17.08,17.08,0,0,1,2.43-4.25c23.76-29.87,64.51-37.06,64.51-37.06Z" transform="translate(-13.57 -100.46)"/><path class="cls-2" d="M430,158s-19-64-87-57C223.61,113.29,236,345,236,345l39.81,4.15a68.8,68.8,0,0,0,16.35-.26L328,344l-2-42C430,286,430,158,430,158Z" transform="translate(-13.57 -100.46)"/><path class="cls-6" d="M390.59,564c16.59-16,4.41-84,4.41-84s-21.29,72-52.15,84Z" transform="translate(-13.57 -100.46)"/><path class="cls-6" d="M430,158s-19-64-87-57c-75.33,7.75-99.26,105.15-105,174C243.19,275.9,328,285.22,430,158Z" transform="translate(-13.57 -100.46)"/><circle class="cls-7" cx="513.93" cy="162.04" r="39.5"/><path class="cls-2" d="M500.69,432c0,.08-.42,3.56,2.25,9.59,0,0,1.92,6.11,1.92,6.16a3.35,3.35,0,0,0,2.48,2.82c1.57.26,3.14-2.28,3.32-5.58,0-.33.1-5.72.34-7" transform="translate(-13.57 -100.46)"/><path class="cls-2" d="M513,425" transform="translate(-13.57 -100.46)"/><path class="cls-2" d="M486.94,430.5c0,.05,1.71,6.18,1.71,6.23a3.34,3.34,0,0,0,2.39,2.9c1.56.31,3.21-2.18,3.5-5.47,0-.33.26-6.72.55-8,0,0-.09-7.19-2.09-8.19s-10.1-2.15-10.1-2.15Z" transform="translate(-13.57 -100.46)"/></svg>